<svg width="100" height="106" viewBox="0 0 100 106" fill="none" xmlns="http://www.w3.org/2000/svg">
<circle cx="50" cy="52" r="50" fill="#313030"/>
<path d="M16.4062 48.6016L19.3945 47.3906V28.6016L16.4062 27.3906V23.9922L25.6055 23.7969H28.6328C31.9661 23.7969 34.5312 24.487 36.3281 25.8672C38.138 27.2344 39.043 29.2656 39.043 31.9609C39.043 33.7708 38.6393 35.3073 37.832 36.5703C37.0378 37.8203 35.931 38.8034 34.5117 39.5195C35.1758 40.2878 35.7357 41.1536 36.1914 42.1172L38.8867 47.6055L41.6016 48.6016V52H34.1992L30.8398 44.5977C30.332 43.4518 29.9284 42.6445 29.6289 42.1758C29.3424 41.707 29.0104 41.3815 28.6328 41.1992C28.2682 41.0169 27.7214 40.9258 26.9922 40.9258H25.6055V47.3906L28.4766 48.6016V52H16.4062V48.6016ZM27.8711 36.7266C29.4466 36.7266 30.6706 36.362 31.543 35.6328C32.4284 34.8906 32.8711 33.8555 32.8711 32.5273C32.8711 31.3815 32.513 30.444 31.7969 29.7148C31.0807 28.9727 30.1107 28.6016 28.8867 28.6016H25.6055V36.7266H27.8711ZM45.8789 23.7969C45.8789 22.7031 46.2174 21.8307 46.8945 21.1797C47.5716 20.5286 48.3789 20.2031 49.3164 20.2031C51.556 20.2031 52.6758 21.401 52.6758 23.7969C52.6758 24.9167 52.3307 25.8086 51.6406 26.4727C50.9635 27.1237 50.1888 27.4492 49.3164 27.4492C48.2227 27.4492 47.3763 27.1367 46.7773 26.5117C46.1784 25.8737 45.8789 24.9688 45.8789 23.7969ZM55.3906 48.7969V52H43.3984V48.7969L46.6016 47.8008V34.793L43.3984 33.7969V30.5938L52.5977 30.3984V47.8008L55.3906 48.7969ZM58.0078 48.6016L60.9961 47.3906V28.6016L58.0078 27.3906V23.9922L67.5977 23.7969L78.3984 42.2734V28.6016L75.4883 27.3906V23.9922L86.875 23.7969V27.3906L83.8867 28.6016V52H77.207L66.4844 33.875V47.3906L69.6094 48.6016V52H58.0078V48.6016Z" fill="white"/>
<path d="M25.0547 79.4512L27.2959 78.543V64.4512L25.0547 63.543V60.9941L31.9541 60.8477H34.2246C36.7246 60.8477 38.6484 61.3652 39.9961 62.4004C41.3535 63.4258 42.0322 64.9492 42.0322 66.9707C42.0322 68.3281 41.7295 69.4805 41.124 70.4277C40.5283 71.3652 39.6982 72.1025 38.6338 72.6396C39.1318 73.2158 39.5518 73.8652 39.8936 74.5879L41.915 78.7041L43.9512 79.4512V82H38.3994L35.8799 76.4482C35.499 75.5889 35.1963 74.9834 34.9717 74.6318C34.7568 74.2803 34.5078 74.0361 34.2246 73.8994C33.9512 73.7627 33.541 73.6943 32.9941 73.6943H31.9541V78.543L34.1074 79.4512V82H25.0547V79.4512ZM33.6533 70.5449C34.835 70.5449 35.7529 70.2715 36.4072 69.7246C37.0713 69.168 37.4033 68.3916 37.4033 67.3955C37.4033 66.5361 37.1348 65.833 36.5977 65.2861C36.0605 64.7295 35.333 64.4512 34.415 64.4512H31.9541V70.5449H33.6533ZM47.1592 60.8477C47.1592 60.0273 47.4131 59.373 47.9209 58.8848C48.4287 58.3965 49.0342 58.1523 49.7373 58.1523C51.417 58.1523 52.2568 59.0508 52.2568 60.8477C52.2568 61.6875 51.998 62.3564 51.4805 62.8545C50.9727 63.3428 50.3916 63.5869 49.7373 63.5869C48.917 63.5869 48.2822 63.3525 47.833 62.8838C47.3838 62.4053 47.1592 61.7266 47.1592 60.8477ZM54.293 79.5977V82H45.2988V79.5977L47.7012 78.8506V69.0947L45.2988 68.3477V65.9453L52.1982 65.7988V78.8506L54.293 79.5977ZM56.2559 79.4512L58.4971 78.543V64.4512L56.2559 63.543V60.9941L63.4482 60.8477L71.5488 74.7051V64.4512L69.3662 63.543V60.9941L77.9062 60.8477V63.543L75.665 64.4512V82H70.6553L62.6133 68.4062V78.543L64.957 79.4512V82H56.2559V79.4512Z" fill="white"/>
</svg>
